<?xml version="1.0" encoding="UTF-8" standalone="no"?>
<!-- Created with Inkscape (http://www.inkscape.org/) -->

<svg
   width="31"
   height="40"
   viewBox="0 0 8.2020831 10.583337"
   version="1.1"
   id="svg5"
   xmlns="http://www.w3.org/2000/svg"
   xmlns:svg="http://www.w3.org/2000/svg">
  <defs
     id="defs2" />
  <g
     id="layer1">
    <path
       d="M 3.6098778,10.345522 C 2.5280746,9.01503 0.12199414,5.7903434 0.12199414,3.9790476 0.12199414,1.7814531 1.9034468,5.24375e-7 4.1010412,5.24375e-7 c 2.1967662,0 3.979048,1.781452575625 3.979048,3.979047075625 0,1.8112958 -2.4247319,5.0359824 -3.4878836,6.3664744 -0.254908,0.317081 -0.72742,0.317081 -0.9823278,0 z M 4.1010412,5.305397 c 0.7315645,0 1.3263495,-0.594785 1.3263495,-1.3263494 0,-0.7315644 -0.594785,-1.3263486 -1.3263495,-1.3263486 -0.7315643,0 -1.3263485,0.5947842 -1.3263485,1.3263486 0,0.7315644 0.5947842,1.3263494 1.3263485,1.3263494 z"
       id="path63"
       style="stroke-width:0.0207244;fill:#500000;fill-opacity:1" />
  </g>
</svg>
